<?xml version="1.0" encoding="UTF-8"?>
<!DOCTYPE svg PUBLIC "-//W3C//DTD SVG 1.1//EN" "http://www.w3.org/Graphics/SVG/1.1/DTD/svg11.dtd">
<!-- Creator: CorelDRAW 2017 -->
<svg xmlns="http://www.w3.org/2000/svg" xml:space="preserve" width="60%" height="60%" version="1.1" style="shape-rendering:geometricPrecision; text-rendering:geometricPrecision; image-rendering:optimizeQuality; fill-rule:evenodd; clip-rule:evenodd"
viewBox="0 0 17820 12600"
 xmlns:xlink="http://www.w3.org/1999/xlink">
 <defs>
  <style type="text/css">
   <![CDATA[
    .str0 {stroke:#373435;stroke-width:4.57;stroke-miterlimit:22.9256}
    .fil12 {fill:#373435}
    .fil1 {fill:#FEFEFE;fill-rule:nonzero}
    .fil13 {fill:#373435;fill-rule:nonzero}
    .fil6 {fill:#FEC64B;fill-rule:nonzero}
    .fil5 {fill:#FBAF3C;fill-rule:nonzero}
    .fil2 {fill:#EAEAE9;fill-rule:nonzero}
    .fil8 {fill:#E0E1E0;fill-rule:nonzero}
    .fil10 {fill:#787D7E;fill-rule:nonzero}
    .fil4 {fill:#28A0A6;fill-rule:nonzero}
    .fil9 {fill:#28A0A6;fill-rule:nonzero}
    .fil11 {fill:#298289;fill-rule:nonzero}
    .fil3 {fill:#298289;fill-rule:nonzero}
    .fil0 {fill:#287A7F;fill-rule:nonzero}
    .fil14 {fill:#287A7F;fill-rule:nonzero}
    .fil7 {fill:#265D63;fill-rule:nonzero}
   ]]>
  </style>
 </defs>
 <g id="Camada_x0020_1">
  <metadata id="CorelCorpID_0Corel-Layer"/>
  <g id="_2629309506304">
   <path class="fil0" d="M11307.74 5047.33c218.29,-652 341.71,-1319.2 409.81,-1919.72 52.9,-457.23 73.37,-875.74 78.23,-1218.88l-1.42 0.41c0,-3.04 0,-6.28 0,-9.12 -386.29,88.77 -778.46,133.57 -1173.47,133.57 -785.56,0 -1428.84,-179.77 -1824.67,-337.66l0 -778.87c170.65,106.21 1744.61,847.78 3667.57,4.67l6.08 6.08c24.73,256.78 567.28,6389.63 -3673.64,7878.69l0 -783.15c37.9,-16.19 75.19,-32.61 112.08,-49.83 134.98,-61.82 263.68,-129.91 386.29,-203.69 1042.33,-625.04 1655.43,-1653.19 2013.14,-2722.49z"/>
   <path class="fil0" d="M12469.87 927.81l-6.08 -6.08 5.27 -2.23c0,0 0.2,2.83 0.81,8.31z"/>
   <path class="fil1" d="M11794.36 1909.15l1.42 -0.41c-4.86,343.13 -25.33,761.65 -78.23,1218.88 51.89,-456.82 71.75,-874.93 76.81,-1218.47z"/>
   <path class="fil1" d="M11794.36 1900.03c0,2.84 0,6.08 0,9.12 -5.06,343.54 -24.92,761.65 -76.81,1218.47 -68.09,600.52 -191.52,1267.72 -409.81,1919.72l-1812.5 -1812.5c-166.6,-193.76 -413.24,-316.57 -688.07,-316.57 -500.19,0 -907.16,406.97 -907.16,907.16l0 396.83 -160.52 0c-51.68,0 -93.84,42.16 -93.84,93.84l0 1760.21c0,26.96 11.35,51.28 29.8,68.3l-2.84 3.24 1621.99 1621.99c-122.62,73.78 -251.31,141.88 -386.29,203.69 -36.89,17.22 -74.18,33.64 -112.08,49.83 -6.89,3.06 -13.37,6.1 -20.27,9.14 -2277.23,-982.75 -2833.97,-3771.93 -2951.11,-5534.98 -15,-218.28 -23.3,-421.15 -26.75,-602.95 385.69,88.78 776.44,133.56 1169.42,133.56 819.4,0 1458.02,-191.93 1828.31,-332.38l0.4 0.2c395.83,157.88 1039.1,337.66 1824.67,337.66 395,0 787.18,-44.8 1173.47,-133.57z"/>
   <path class="fil2" d="M9495.24 3234.83l1812.5 1812.5c-357.71,1069.3 -970.82,2097.46 -2013.14,2722.49l-1621.99 -1621.99 2.84 -3.24c16.82,15.81 39.12,25.54 64.04,25.54l2135.36 0c51.89,0 93.83,-41.96 93.83,-93.84l0 -1760.21c0,-51.68 -41.95,-93.84 -93.83,-93.84l-160.52 0 0 -396.83c0,-225.37 -82.69,-431.89 -219.09,-590.59z"/>
   <path class="fil3" d="M9281.22 4222.25l0 -396.83c0,-261.25 -212.6,-474.05 -474.05,-474.05 -261.24,0 -474.05,212.8 -474.05,474.05l0 396.83 948.1 0zm214.02 -987.42c136.4,158.69 219.09,365.21 219.09,590.59l0 396.83 160.52 0c51.89,0 93.83,42.16 93.83,93.84l0 1760.21c0,51.88 -41.95,93.84 -93.83,93.84l-2135.36 0c-24.92,0 -47.23,-9.73 -64.04,-25.54 -18.44,-17.02 -29.8,-41.35 -29.8,-68.3l0 -1760.21c0,-51.68 42.16,-93.84 93.84,-93.84l160.52 0 0 -396.83c0,-500.19 406.97,-907.16 907.16,-907.16 274.83,0 521.48,122.81 688.07,316.57z"/>
   <path class="fil2" d="M9281.22 3825.41l0 396.83 -948.1 0 0 -396.83c0,-261.25 212.81,-474.05 474.05,-474.05 261.45,0 474.05,212.8 474.05,474.05z"/>
   <path class="fil4" d="M8796.22 8023.35l0 783.15 -2.63 1.01c-598.09,-213.62 -1101.33,-523.1 -1524.71,-897.43l-418.72 -418.75c-2125.43,-2397.19 -1771.16,-6579.54 -1771.16,-6579.54 1932.89,850.21 3474.22,105.59 3715.19,3.85l2.03 1.42 0 778.87 -0.4 -0.2c-370.28,140.45 -1008.91,332.38 -1828.31,332.38 -392.98,0 -783.73,-44.78 -1169.42,-133.56 3.45,181.8 11.75,384.67 26.75,602.95 117.14,1763.05 673.88,4552.23 2951.11,5534.98 6.89,-3.04 13.38,-6.08 20.27,-9.14z"/>
   <path class="fil4" d="M6850.16 7491.36l418.72 418.72c-149.37,-131.94 -288.81,-271.99 -418.72,-418.72z"/>
   <path class="fil5" d="M12472.1 952.19c-0.94,-10.74 -1.7,-18.89 -2.23,-24.38l0 0c0.53,5.49 1.3,13.64 2.23,24.38z"/>
   <path class="fil6" d="M9657.52 1218.7c-476.06,-103.76 -787.58,-256.13 -860.28,-301.01 -0.05,-0.02 -0.1,-0.06 -0.17,-0.08 -0.28,-0.19 -0.56,-0.37 -0.85,-0.55 70.8,44 382.97,197.36 861.3,301.64zm2812.34 -290.89l0 0c-0.61,-5.48 -0.81,-8.31 -0.81,-8.31 0,0 0.28,2.79 0.81,8.31z"/>
   <path class="fil7" d="M11340.88 4945.95c197.79,-619.52 312.1,-1248.91 376.67,-1818.34l0 0c52.9,-457.23 73.37,-875.74 78.23,-1218.88l0 0 -1.42 0.41c0,-3.04 0,-6.28 0,-9.12l0 0c-386.29,88.77 -778.46,133.57 -1173.47,133.57 -785.56,0 -1428.84,-179.77 -1824.67,-337.66l0 -778.87c0.29,0.19 0.57,0.37 0.85,0.55 0.07,0.02 0.12,0.06 0.17,0.08 72.7,44.87 384.22,197.24 860.28,301.01 267.24,58.25 586.23,101.18 944.09,101.18 546,-0.02 1182.4,-100.04 1862.24,-398.09l6.02 6.02 0 0c0.53,5.49 1.3,13.64 2.23,24.38 22.35,253.57 147.5,1943.43 -303.61,3721.73 -270.19,102.9 -546.25,193.8 -827.62,272.03z"/>
   <path class="fil7" d="M12469.87 927.81l-6.02 -6.02c1.76,-0.77 3.44,-1.52 5.21,-2.29l0 0c0,0 0.2,2.83 0.81,8.31l0 0z"/>
   <path class="fil1" d="M11717.54 3127.61c51.89,-456.82 71.75,-874.93 76.81,-1218.47l0 0 1.42 -0.41c-4.86,343.13 -25.33,761.65 -78.23,1218.88z"/>
   <path class="fil1" d="M7645.65 5222.38c-471.27,-57.05 -931.72,-148.67 -1379.08,-272.27 -275.27,-860.42 -394.4,-1740.35 -441.73,-2452.6 -15,-218.28 -23.3,-421.15 -26.75,-602.95 385.69,88.78 776.44,133.56 1169.42,133.56 819.4,0 1458.02,-191.93 1828.31,-332.38l0.4 0.2c395.83,157.88 1039.1,337.66 1824.67,337.66 395,0 787.18,-44.8 1173.47,-133.57l0 0c0,2.84 0,6.08 0,9.12l0 0c-5.06,343.54 -24.92,761.65 -76.81,1218.47l0 0c-64.57,569.43 -178.88,1198.81 -376.67,1818.34 -35.16,9.79 -70.43,19.38 -105.75,28.76l-1739.89 -1739.89c-166.6,-193.76 -413.24,-316.57 -688.07,-316.57 -500.19,0 -907.16,406.97 -907.16,907.16l0 396.83 -160.52 0c-51.68,0 -93.84,42.16 -93.84,93.84l0 906.29z"/>
   <path class="fil8" d="M9968.68 5219.71l0 -903.62c0,-51.68 -41.95,-93.84 -93.83,-93.84l-160.52 0 0 -396.83c0,-225.37 -82.69,-431.89 -219.09,-590.59l1739.89 1739.89c-411.82,109.36 -834.65,191.71 -1266.44,244.99z"/>
   <path class="fil9" d="M8656.6 5290.52c-341.66,-4.93 -678.95,-27.95 -1010.95,-68.14l0 -906.29c0,-51.68 42.16,-93.84 93.84,-93.84l160.52 0 0 -396.83c0,-500.19 406.97,-907.16 907.16,-907.16 274.83,0 521.48,122.81 688.07,316.57 136.4,158.69 219.09,365.21 219.09,590.59l0 396.83 160.52 0c51.89,0 93.83,42.16 93.83,93.84l0 903.62c-331.83,40.94 -668.92,64.73 -1010.46,70.46 0,0 -116.34,4.33 -301.62,0.35zm-323.48 -1068.27l948.1 0 0 -396.83c0,-261.25 -212.6,-474.05 -474.05,-474.05 -261.24,0 -474.05,212.8 -474.05,474.05l0 396.83z"/>
   <path class="fil10" d="M6948.5 1314.43l-0.13 0 0.13 0 0 0zm0.1 0c982.86,-0.06 1675.07,-326 1840.35,-396.55 -165.28,70.55 -857.33,396.55 -1840.35,396.55zm1840.45 -396.59c1.2,-0.52 2.38,-1.01 3.53,-1.5 -1.15,0.49 -2.33,0.98 -3.53,1.5zm-3699.5 -1.42c-0.47,-0.2 -0.85,-0.36 -1.31,-0.56 0.46,0.2 0.85,0.36 1.31,0.56z"/>
   <polygon class="fil6" points="5078.95,912.38 5078.95,912.37 "/>
   <path class="fil6" d="M5078.99 912.1l0 -0.02c0,0.02 0,0.02 0,0.02z"/>
   <path class="fil6" d="M5078.99 912c0,-0.02 0,-0.04 0,-0.06 0,0.02 0,0.04 0,0.06z"/>
   <path class="fil6" d="M5078.99 911.92c0,-0.02 0,-0.02 0,-0.02 0,0 0,0 0,0.02z"/>
   <path class="fil6" d="M5079.01 911.86c0,-0.02 0,-0.02 0,-0.04 0,0.02 0,0.02 0,0.04z"/>
   <polygon class="fil6" points="5079.01,911.82 5079.01,911.8 "/>
   <path class="fil8" d="M9281.22 4222.25l-948.1 0 0 -396.83c0,-261.25 212.81,-474.05 474.05,-474.05 261.45,0 474.05,212.8 474.05,474.05l0 396.83z"/>
   <path class="fil11" d="M6266.57 4950.11c-282.61,-78.09 -560,-168.97 -831.37,-271.93 -505.95,-1913.96 -359.36,-3728.14 -356.26,-3765.8l0 -0.02c0.02,-0.1 0.02,-0.2 0.04,-0.26 0,0 0,0 0,-0.02 0,-0.02 0,-0.04 0,-0.08 0,-0.02 0,-0.04 0,-0.06 0,-0.02 0,-0.02 0,-0.02 0,-0.02 0,-0.02 0,-0.02 0,-0.02 0,-0.04 0.02,-0.04 0,-0.02 0,-0.02 0,-0.04l0 0 0 -0.02 0 0c3.06,1.36 6.16,2.69 9.23,4.06 0.46,0.2 0.85,0.36 1.31,0.56 682.09,298.19 1314.83,398.03 1858.83,398.01l0.13 0 0.1 0c983.02,0 1675.07,-326 1840.35,-396.55 0.04,-0.02 0.08,-0.04 0.1,-0.04 1.2,-0.52 2.38,-1.01 3.53,-1.5 0.55,-0.24 1.1,-0.46 1.62,-0.68l2.03 1.42 0 778.87 -0.4 -0.2c-370.28,140.45 -1008.91,332.38 -1828.31,332.38 -392.98,0 -783.73,-44.78 -1169.42,-133.56l0 0c3.45,181.8 11.75,384.67 26.75,602.95 47.32,712.25 166.45,1592.18 441.73,2452.6z"/>
   <g>
    <path class="fil12 str0" d="M9319.88 5505.86l-0.65 -68.91 69.61 0 0.3 69.89 -69.26 -0.98zm-0.6 -205.47l69.86 0 0 69.88 -69.89 0 0.03 -69.88zm-136.57 0l69.86 0 0 69.88 -69.89 0 0.02 -69.88zm136.67 -136.57l69.75 0 0 69.89 -69.89 0 0.14 -69.89zm-136.07 -67.65l0.97 66.1 68.29 0 0.13 71.44 -136.69 0 0.13 68.28 -69.97 0 -0.01 -138.15 -204.25 0.61 0.68 69.26 -136.19 0 -1.05 66.1 69.26 -0.98 0.98 68.28 132.43 0 -0.13 -135.01 71.59 0 -1 204.27 66.1 -1.05 0 -66.65 71.35 0 0.08 66.73 136.69 0 -1.7 69.86 68.88 0.61 0.68 66.1 133.7 0 -0.13 -136.56 68.41 0 0 -65.12 -68.28 0 -0.13 -71.44 68.41 0 -0.13 -65.12 -68.15 0 0 -71.44 68.28 0 -0.02 -65.13 -68.26 0 0.3 -68.28 -65.42 0 0 68.28 -71.44 0 0.29 -68.28 -65.42 0 0 68.36 -69.26 -1.05z"/>
    <path class="fil12 str0" d="M9116.14 4549.3l341.27 0 -1.58 343.01 -341.43 0 1.73 -343.01zm-63.16 402.88l464.31 0 0 -464.31 -464.31 0 0 464.31z"/>
    <path class="fil12 str0" d="M8158.5 4549.3l342.98 0 -1.58 343.01 -341.44 0 0.03 -343.01zm-61.45 402.88l464.31 0 0 -464.31 -464.31 0 0 464.31z"/>
    <path class="fil12 str0" d="M8155.09 5505.23l346.4 0 5.25 343.01 -348.26 0 -3.38 -343.01zm-58.04 402.88l464.31 0 0 -464.31 -464.31 0 0 464.31z"/>
    <path class="fil12 str0" d="M8774.41 5711.48l0.76 68.48 -70.44 0 0 -70.09 69.68 1.6zm271.75 -69.65l-67.68 0.6 0.98 69.23 -205.04 -0.18 -0.77 -70.25 -70.46 2.18 0 -68.29 -65.12 0 0.13 338.25 64.99 0 0.08 -68.28 71.36 0 0.13 68.28 133.28 0 0.29 -65.12 -68.58 0 1.58 -71.44 203.18 0 1.66 -134.98z"/>
    <polygon class="fil12 str0" points="8499.91,5232.14 8569.76,5232.18 8568.78,5299.82 8637.07,5301.02 8636.44,5095.55 8706.46,5095.55 8706.32,5162.28 8841.91,5164.46 8841.91,5094.97 8773.06,5097.15 8773.03,4959.01 8705.35,4959.61 8708.16,5028.87 8501.48,5028.87 8502.04,5093.99 8569.76,5093.99 8569.76,5165.44 8501.69,5165.44 "/>
    <polygon class="fil12 str0" points="8773.63,5641.22 8839.73,5640.17 8839.73,5573.51 8910.97,5574.92 8909.57,5505.04 8979.25,5506.64 8978.47,5436.38 8704.72,5438.56 8705.35,5299.82 8637.07,5301.02 8638.18,5503.69 8774.65,5503.69 "/>
    <polygon class="fil12 str0" points="8159.1,5232.74 8158.48,5163.63 8228.16,5165.23 8225.08,5095.55 8365.05,5095.55 8363.34,5232.14 8432.23,5232.74 8424.8,5028.87 8091.8,5028.87 8091.8,5028.87 8091.8,5230.27 "/>
    <polygon class="fil12 str0" points="8233.61,4815.62 8424.8,4815.62 8424.8,4624.43 8233.61,4624.43 "/>
    <polygon class="fil12 str0" points="9189.54,4815.62 9380.73,4815.62 9380.73,4624.43 9189.54,4624.43 "/>
    <polygon class="fil12 str0" points="8233.61,5771.56 8424.8,5771.56 8424.8,5580.37 8233.61,5580.37 "/>
    <polygon class="fil12 str0" points="8705.35,4959.61 8704.75,4890.7 8774.82,4890.71 8773.03,4959.01 8841.91,4959.61 8839.55,4824.03 8771.32,4824.03 8773.03,4754.17 8705.52,4754.94 8706.44,4824.03 8638.18,4824.03 8638.04,4957.43 "/>
    <polygon class="fil12 str0" points="8706.32,4550.9 8638.18,4550.9 8638.04,4616.03 8976.16,4616.03 8976.29,4550.9 8773.03,4550.9 8771.45,4482.62 8706.46,4482.62 "/>
    <polygon class="fil12 str0" points="8841.91,4959.61 8841.91,5094.97 8908.01,5093.92 8908.01,5027.27 8977.88,5027.3 8976.2,4824.03 8911.09,4824.03 8911.17,4960.59 "/>
    <polygon class="fil12 str0" points="9046.75,5574.14 9046.15,5641.82 9182.71,5641.82 9181.22,5571.96 9249.26,5571.96 9251,5505.26 9116.01,5506.84 9116.01,5575.2 "/>
    <polygon class="fil12 str0" points="8295.06,5300.42 8226.76,5302.16 8226.78,5232.14 8159.1,5232.74 8161.91,5302 8091.8,5302 8091.8,5367.12 8293.33,5367.12 "/>
    <path class="fil12 str0" d="M8097.05 5443.81l464.31 0 0 464.31 -464.31 0 0 -464.31zm-6.83 471.11l477.93 0 3.45 -477.9 -481.35 0 -0.03 477.9z"/>
    <path class="fil12 str0" d="M9052.98 4487.87l464.31 0 0 464.31 -464.31 0 0 -464.31zm-6.79 471.1l477.93 0 -0.04 -477.89 -477.93 0 0.04 477.89z"/>
    <path class="fil12 str0" d="M8097.05 4487.87l464.31 0 0 464.31 -464.31 0 0 -464.31zm-6.8 471.1l464.28 0 13.62 0 0 -477.89 -477.93 0 0.03 477.89z"/>
    <path class="fil12 str0" d="M9319.26 5846.65c17.92,-11.32 35.94,-6.81 61.47,-6.81l0 -54.62 -122.91 0 0 122.9 54.63 0 6.81 -61.47z"/>
    <polygon class="fil12 str0" points="8773.03,4754.17 8908.01,4752.47 8908.01,4687.46 8773.03,4687.46 "/>
    <polygon class="fil12 str0" points="9182.71,5641.82 9185.27,5708.53 9317.7,5708.53 9317.7,5643.53 "/>
    <polygon class="fil12 str0" points="9047.86,5913.37 9181.13,5913.37 9179.3,5848.24 9047.73,5848.24 "/>
    <path class="fil12 str0" d="M8233.61 4624.43l191.19 0 0 191.19 -191.19 0 0 -191.19zm-6.79 197.98l208.22 0 -3.44 -204.77 0.73 0 -205.54 0 0.04 204.77z"/>
    <path class="fil12 str0" d="M9189.54 4624.43l191.19 0 0 191.19 -191.19 0 0 -191.19zm-6.79 197.98l204.81 0 -0.04 -204.77 -205.66 0 0.89 204.77z"/>
    <path class="fil12 str0" d="M8233.61 5580.37l191.19 0 0 191.19 -191.19 0 0 -191.19zm-6.79 197.98l204.81 0 -0.04 -204.77 0.73 0 -205.5 0 0 0 0 204.77z"/>
    <polygon class="fil12 str0" points="8295.06,5300.42 8363.35,5300.42 8363.34,5232.14 8295.67,5232.74 "/>
    <polygon class="fil12 str0" points="8432.22,5299.82 8499.91,5300.42 8499.91,5232.14 8432.23,5232.74 "/>
    <polygon class="fil12 str0" points="8978.47,5642.42 8977.87,5573.54 8910.97,5574.92 8911.14,5640.25 "/>
    <polygon class="fil12 str0" points="8226.78,5232.14 8295.67,5232.74 8293.19,5165.44 8228.16,5165.23 "/>
    <polygon class="fil12 str0" points="8977.87,5573.54 9046.75,5574.14 9044.29,5506.84 8979.25,5506.64 "/>
    <polygon class="fil12 str0" points="9114.43,5095.58 9183.32,5096.18 9180.85,5028.88 9116.01,5028.87 "/>
    <path class="fil12 str0" d="M9319.26 5846.65l-6.81 61.47 -54.63 0 0 -122.9 122.91 0 0 54.62c-25.53,0 -43.55,-4.51 -61.47,6.81zm0 0l68.3 0.02 0 -68.24 -136.53 0 -0.25 136.49 68.45 0 0.02 -68.27z"/>
    <polygon class="fil12 str0" points="8984.7,5088.74 9039.32,5088.74 9039.32,5034.12 8984.7,5034.12 "/>
    <polygon class="fil12 str0" points="8643.29,4747.34 8697.92,4747.34 8697.92,4692.71 8643.29,4692.71 "/>
    <polygon class="fil12 str0" points="8370.17,5361.87 8424.8,5361.87 8424.8,5307.25 8370.17,5307.25 "/>
    <polygon class="fil12 str0" points="8506.73,5361.87 8561.36,5361.87 8561.36,5307.25 8506.73,5307.25 "/>
    <polygon class="fil12 str0" points="9052.98,5157.03 9107.6,5157.03 9107.6,5102.4 9052.98,5102.4 "/>
    <polygon class="fil12 str0" points="9394.39,5703.28 9449.01,5703.28 9449.01,5648.65 9394.39,5648.65 "/>
    <polygon class="fil12 str0" points="9394.39,5908.12 9449.01,5908.12 9449.01,5853.49 9394.39,5853.49 "/>
    <path class="fil12 str0" d="M8643.29 4692.71l54.62 0 0 54.63 -54.62 0 0 -54.63zm62.23 62.23l-0.92 -69.02 -68.1 0 0 68.21 69.02 0.8z"/>
    <path class="fil12 str0" d="M8506.73 5307.25l54.62 0 0 54.62 -54.62 0 0 -54.62zm62.05 -7.42l-68.87 0.6 -0.01 68.24 68.23 0 0.65 -68.84z"/>
    <path class="fil12 str0" d="M8370.17 5307.25l54.63 0 0 54.62 -54.63 0 0 -54.62zm62.05 -7.42l-68.87 0.6 0.85 68.24 67.37 0 0.65 -68.84z"/>
    <path class="fil12 str0" d="M9394.39 5853.49l54.62 0 0 54.62 -54.62 0 0 -54.62zm-6.83 -6.83l-0.22 68.25 68.46 0 0 -68.21 -68.24 -0.04z"/>
    <path class="fil12 str0" d="M8984.7 5034.12l54.62 0 0 54.62 -54.62 0 0 -54.62zm61.45 61.45l0.03 -68.24 -68.3 -0.02 -0.04 68.24 68.31 0.03z"/>
    <path class="fil12 str0" d="M9052.98 5102.4l54.62 0 0 54.63 -54.62 0 0 -54.63zm-6.82 61.45l68.23 0.04 0.03 -68.3 -68.27 -0.01 0.01 68.27z"/>
    <path class="fil12 str0" d="M9394.39 5648.65l54.62 0 0 54.62 -54.62 0 0 -54.62zm-6.79 61.42l68.21 0 0 -68.21 -68.21 0 0 68.21z"/>
   </g>
  </g>
  <path class="fil13" d="M12161.26 11209.99c0,-21.28 -3.83,-37.23 -11.5,-47.87 -7.79,-10.63 -16.33,-18.8 -25.6,-24.49 -9.28,-5.69 -19.54,-10.02 -30.67,-12.98 -11,-3.1 -22.14,-4.58 -33.27,-4.58 -18.43,0 -34.38,2.1 -48.23,6.31 -13.73,4.33 -25.1,10.02 -34.26,17.32 -9.02,7.18 -15.83,15.58 -20.41,25.36 -4.57,9.64 -6.92,19.79 -6.92,30.42 0,15.96 2.84,28.82 8.53,38.59 5.69,9.77 12.86,17.56 21.52,23.5 8.78,5.94 18.31,10.64 28.82,13.97 10.51,3.34 20.65,6.8 30.3,10.15l73.22 23.87c21.89,7.05 41.3,14.96 58.13,23.99 16.82,8.9 30.79,19.42 42.17,31.66 11.38,12.25 20.03,26.22 25.97,42.17 5.93,15.95 8.9,34.51 8.9,55.41 0,22.75 -4.7,43.78 -13.98,63.07 -9.27,19.42 -22.26,36.11 -38.96,50.46 -16.69,14.23 -36.61,25.36 -59.61,33.4 -23.13,8.16 -48.36,12.24 -75.94,12.24 -28.2,0 -52.44,-3.21 -72.48,-9.64 -20.03,-6.43 -36.85,-14.97 -50.58,-25.73 -13.61,-10.76 -24.49,-23 -32.78,-36.73 -8.16,-13.85 -14.59,-27.95 -19.17,-42.42l-27.58 0 0 -62.33 91.4 0c0,26.84 2.85,45.76 8.54,56.89 5.56,11.13 13.48,20.28 23.62,27.7 10.14,7.42 22.26,12.99 36.23,16.7 14.1,3.71 29.56,5.57 46.38,5.57 16.45,0 31.29,-1.86 44.4,-5.81 13.24,-3.83 24.49,-9.4 33.77,-16.82 9.28,-7.3 16.45,-16.33 21.4,-26.84 4.94,-10.51 7.42,-22.39 7.42,-35.62 0,-14.72 -3.1,-27.21 -9.28,-37.48 -6.19,-10.27 -14.1,-19.04 -23.75,-26.35 -9.65,-7.17 -20.29,-13.11 -31.66,-17.68 -11.5,-4.7 -22.51,-8.66 -33.14,-12l-79.4 -22.51c-17.44,-5.32 -33.27,-12 -47.62,-20.29 -14.35,-8.16 -26.71,-18.18 -36.98,-30.05 -10.27,-11.87 -18.18,-25.72 -23.75,-41.43 -5.56,-15.83 -8.29,-34.13 -8.29,-54.91 0,-21.02 4.08,-40.69 12.25,-59.12 8.29,-18.31 20.28,-34.39 36.23,-48.11 15.95,-13.85 35.5,-24.61 58.5,-32.53 23.13,-7.79 49.48,-11.75 79.28,-11.75 19.54,0 37.6,2.35 54.05,6.92 16.57,4.58 31.54,11.01 45.02,19.42 13.36,8.29 25.23,18.31 35.5,30.05 10.27,11.63 18.92,24.49 25.85,38.59l27.21 0 0 62.33 -88.8 0zm136.29 212.23c0.25,-29.68 5.08,-56.77 14.35,-81.13 9.28,-24.36 22.26,-45.39 38.96,-62.83 16.57,-17.56 36.49,-31.04 59.36,-40.45 23,-9.4 48.23,-14.09 75.69,-14.09 27.83,0 53.3,4.7 76.31,14.09 23.13,9.4 42.79,22.76 59.24,40.07 16.45,17.32 29.19,38.09 38.47,62.46 9.15,24.49 13.73,51.45 13.73,81.25 0,29.19 -4.58,56.03 -13.73,80.51 -9.28,24.61 -22.02,45.64 -38.47,63.32 -16.45,17.56 -36.11,31.29 -59.24,41.06 -23,9.77 -48.48,14.72 -76.31,14.72 -28.2,0 -53.8,-4.82 -76.81,-14.47 -22.88,-9.65 -42.54,-23.25 -58.99,-40.81 -16.45,-17.56 -29.31,-38.47 -38.47,-62.83 -9.15,-24.49 -13.85,-51.32 -14.1,-80.89zm71.36 0c0,21.52 3.1,40.94 9.28,58.38 6.19,17.44 14.59,32.15 25.36,44.4 10.76,12.25 23.12,21.64 37.35,28.32 14.1,6.56 29.19,9.89 45.02,9.89 16.7,0 32.28,-3.22 46.63,-9.77 14.35,-6.56 26.84,-15.83 37.48,-28.07 10.64,-12.25 18.92,-26.96 24.98,-44.4 6.06,-17.44 9.02,-36.98 9.02,-58.75 0,-22.63 -2.96,-42.79 -9.02,-60.47 -6.06,-17.56 -14.23,-32.41 -24.74,-44.15 -10.51,-11.87 -23,-20.78 -37.6,-26.84 -14.47,-6.06 -30.05,-9.03 -46.75,-9.03 -15.83,0 -30.92,2.97 -45.02,9.03 -14.23,6.06 -26.59,14.96 -37.35,26.84 -10.76,11.75 -19.17,26.59 -25.36,44.15 -6.18,17.68 -9.28,37.84 -9.28,60.47zm374.75 -376.1l121.7 0 0 501.52 56.52 0 0 62.33 -178.22 0 0 -62.33 54.29 0 0 -439.18 -54.29 0 0 -62.33zm470.22 188.49l121.08 0 0 313.03 41.68 0 0 62.33 -109.46 0 0 -34.75c-16.94,12.98 -35.37,23.12 -55.28,30.43 -19.91,7.17 -41.18,10.88 -63.94,10.88 -18.8,0 -35.99,-2.72 -51.32,-8.16 -15.34,-5.44 -28.32,-13.97 -39.08,-25.36 -10.76,-11.5 -19.04,-26.09 -24.86,-43.66 -5.81,-17.69 -8.66,-38.71 -8.66,-63.08l0 -179.33 -50.71 0 0 -62.33 120.95 0 0 233.63c0,28.81 6.68,50.58 19.91,65.3 13.36,14.72 32.41,22.01 57.26,22.01 14.72,0 30.3,-2.6 46.63,-7.91 16.33,-5.32 31.66,-12.61 46.13,-22.14l0 -228.56 -50.34 0 0 -62.33zm534.04 99.93c-10.15,-18.06 -23,-31.29 -38.59,-39.83 -15.58,-8.41 -33.64,-12.61 -54.17,-12.61 -15.71,0 -30.43,3.22 -44.15,9.77 -13.73,6.43 -25.85,15.83 -36.11,27.83 -10.27,12.12 -18.31,26.84 -24.24,44.03 -5.93,17.31 -8.9,36.61 -8.9,57.88 0,20.9 2.97,39.95 8.9,56.89 5.93,16.82 14.1,31.29 24.49,43.29 10.39,11.87 22.39,21.02 35.99,27.46 13.73,6.43 28.32,9.65 44.03,9.65 23.25,0 43.41,-5.57 60.6,-16.82 17.07,-11.25 30.8,-27.7 40.94,-49.47l55.78 27.46c-7.3,15.46 -16.21,29.44 -26.84,41.68 -10.64,12.37 -22.64,22.88 -35.99,31.54 -13.48,8.66 -28.19,15.46 -44.27,20.16 -16.08,4.7 -33.02,7.05 -50.83,7.05 -26.09,0 -50.21,-4.94 -72.35,-14.72 -22.13,-9.77 -41.18,-23.5 -57.26,-41.06 -16.07,-17.69 -28.57,-38.71 -37.47,-63.08 -8.9,-24.37 -13.36,-51.08 -13.36,-80.02 0,-29.06 4.7,-55.78 14.09,-80.14 9.4,-24.37 22.39,-45.39 38.71,-62.83 16.45,-17.56 35.62,-31.29 57.64,-41.18 22.01,-9.89 45.52,-14.84 70.62,-14.84 23.75,0 46.13,4.08 67.28,12.37 21.15,8.17 39.7,20.66 55.66,37.36l37.97 0 0 62.21 -68.14 0zm-177.48 385.25c13.36,-0.25 25.36,-2.6 36.11,-7.05 10.76,-4.57 20.16,-10.39 28.2,-17.68 8.16,-7.18 14.72,-15.71 19.91,-25.48 5.2,-9.77 8.78,-20.28 10.76,-31.41l54.29 16.33c-4.33,17.68 -11.13,33.39 -20.29,47.36 -9.15,13.85 -20.03,25.6 -32.77,35.13 -12.62,9.52 -26.84,16.82 -42.55,21.89 -15.71,5.07 -32.28,7.67 -49.72,7.67l-3.96 -46.75zm306.47 -297.57c0.25,-29.68 5.08,-56.77 14.35,-81.13 9.28,-24.36 22.26,-45.39 38.96,-62.83 16.57,-17.56 36.49,-31.04 59.36,-40.45 23,-9.4 48.23,-14.09 75.69,-14.09 27.83,0 53.3,4.7 76.31,14.09 23.13,9.4 42.79,22.76 59.24,40.07 16.45,17.32 29.19,38.09 38.47,62.46 9.15,24.49 13.73,51.45 13.73,81.25 0,29.19 -4.58,56.03 -13.73,80.51 -9.28,24.61 -22.02,45.64 -38.47,63.32 -16.45,17.56 -36.11,31.29 -59.24,41.06 -23,9.77 -48.48,14.72 -76.31,14.72 -28.2,0 -53.8,-4.82 -76.81,-14.47 -22.88,-9.65 -42.54,-23.25 -58.99,-40.81 -16.45,-17.56 -29.31,-38.47 -38.47,-62.83 -9.15,-24.49 -13.85,-51.32 -14.1,-80.89zm71.36 0c0,21.52 3.1,40.94 9.28,58.38 6.19,17.44 14.59,32.15 25.36,44.4 10.76,12.25 23.12,21.64 37.35,28.32 14.1,6.56 29.19,9.89 45.02,9.89 16.7,0 32.28,-3.22 46.63,-9.77 14.35,-6.56 26.84,-15.83 37.48,-28.07 10.64,-12.25 18.92,-26.96 24.98,-44.4 6.06,-17.44 9.02,-36.98 9.02,-58.75 0,-22.63 -2.96,-42.79 -9.02,-60.47 -6.06,-17.56 -14.23,-32.41 -24.74,-44.15 -10.51,-11.87 -23,-20.78 -37.6,-26.84 -14.47,-6.06 -30.05,-9.03 -46.75,-9.03 -15.83,0 -30.92,2.97 -45.02,9.03 -14.23,6.06 -26.59,14.96 -37.35,26.84 -10.76,11.75 -19.17,26.59 -25.36,44.15 -6.18,17.68 -9.28,37.84 -9.28,60.47zm68.02 -325.02c12.12,0 22.51,2.1 31.29,6.06 8.91,3.95 17.07,8.29 24.74,12.98 7.54,4.7 15.09,9.03 22.63,12.86 7.42,3.95 15.95,5.81 25.36,5.81 6.8,0 13.36,-2.23 19.66,-6.8 6.43,-4.7 10.76,-12 12.99,-22.14l43.04 12.62c-4.82,20.53 -14.22,36.48 -28.2,47.74 -14.1,11.13 -30.79,16.82 -50.46,16.82 -13.48,0 -24.98,-1.86 -34.38,-5.69 -9.4,-3.71 -17.93,-7.79 -25.73,-12.12 -7.67,-4.33 -14.96,-8.41 -21.77,-12.12 -6.68,-3.71 -14.1,-5.56 -22.01,-5.56 -3.71,0 -7.3,0.25 -11.13,0.74 -3.71,0.37 -7.42,1.61 -11,3.34 -3.59,1.85 -6.93,4.7 -10.02,8.41 -2.97,3.71 -5.32,8.9 -7.05,15.7l-39.46 -19.17c3.1,-11.38 7.55,-20.9 13.36,-28.45 5.81,-7.67 12.37,-13.73 19.54,-18.3 7.3,-4.58 15.09,-7.79 23.38,-9.77 8.41,-1.98 16.82,-2.96 25.23,-2.96zm373.39 333.8c0,10.64 0.74,20.29 2.35,29.19 1.48,8.78 3.71,17.19 6.68,25.1 8.9,24.12 23.25,42.3 42.91,54.54 19.67,12.25 41.93,18.31 66.91,18.31 19.54,0 38.59,-2.72 57.02,-8.16 18.43,-5.44 37.84,-13.98 58.13,-25.48l27.21 46.01c-24.61,16.82 -49.35,29.44 -74.33,37.6 -24.86,8.29 -50.71,12.37 -77.54,12.37 -25.36,0 -48.85,-4.21 -70.37,-12.74 -21.64,-8.41 -40.32,-20.9 -55.9,-37.6 -15.58,-16.7 -27.7,-37.48 -36.61,-62.33 -8.78,-24.86 -13.1,-53.93 -13.1,-86.95 0,-26.84 3.71,-52.19 11.13,-75.94 7.54,-23.74 18.67,-44.52 33.52,-62.33 14.84,-17.81 33.27,-31.78 55.28,-42.17 22.01,-10.39 47.62,-15.58 76.8,-15.58 28.33,0 51.95,4.21 70.87,12.86 18.92,8.53 34.38,19.91 46.38,34.01 11.99,14.1 21.02,30.31 27.2,48.36 6.19,18.18 10.39,36.61 12.86,55.41 1.24,9.28 1.98,18.55 2.35,27.95 0.37,9.4 0.49,18.55 0.49,27.58l-270.23 0zm105.37 -149.65c-15.71,0 -29.44,2.23 -41.06,6.68 -11.75,4.45 -21.77,10.88 -29.93,19.17 -8.29,8.41 -14.84,18.55 -19.79,30.67 -4.94,12 -8.66,25.6 -11,40.57l194.54 0c-0.99,-13.97 -3.22,-26.96 -6.68,-38.83 -3.46,-11.75 -8.9,-22.01 -16.08,-30.8 -7.3,-8.66 -16.57,-15.46 -27.95,-20.28 -11.38,-4.82 -25.36,-7.18 -42.05,-7.18zm473.2 53.93c0,-10.15 -2.35,-18.8 -7.05,-25.85 -4.7,-7.17 -10.88,-12.98 -18.31,-17.44 -7.54,-4.45 -15.83,-7.67 -24.98,-9.77 -9.28,-1.98 -18.18,-3.1 -26.84,-3.1 -9.65,0 -18.55,1.12 -26.59,3.34 -8.16,2.1 -15.09,5.32 -20.9,9.4 -5.81,4.09 -10.27,9.03 -13.61,14.97 -3.22,5.93 -4.82,12.49 -4.82,19.79 0,12.49 3.71,22.51 11.38,29.93 7.67,7.3 20.41,14.1 38.21,20.41l72.11 25.36c30.92,10.39 53.55,24.49 67.77,42.42 14.23,17.93 21.4,39.2 21.4,64.19 0,16.57 -3.34,31.91 -10.02,45.76 -6.56,13.85 -16.08,25.72 -28.2,35.5 -12.25,9.77 -26.96,17.44 -44.03,22.88 -17.19,5.44 -36.24,8.17 -57.26,8.17 -29.19,0 -53.06,-4.7 -71.36,-14.1 -18.43,-9.52 -32.53,-21.89 -42.42,-37.35l-37.72 0 0 -62.33 75.07 0c0,10.39 2.23,19.29 6.68,26.59 4.45,7.42 10.39,13.36 17.69,17.93 7.42,4.57 15.71,8.03 25.1,10.14 9.28,2.23 18.68,3.34 28.45,3.34 9.4,0 18.43,-1.24 27.09,-3.46 8.78,-2.35 16.45,-5.69 23,-10.14 6.68,-4.45 11.99,-9.89 15.83,-16.2 3.83,-6.19 5.81,-13.36 5.81,-21.28 0,-12.12 -3.96,-22.39 -11.87,-30.79 -7.79,-8.54 -21.15,-16.08 -39.95,-22.88l-71.73 -26.84c-29.32,-10.39 -50.96,-23.62 -65.06,-39.7 -14.1,-16.07 -21.27,-36.11 -21.27,-60.23 0,-15.95 2.96,-30.67 8.9,-44.28 5.93,-13.48 14.47,-25.1 25.72,-35 11.26,-9.77 24.98,-17.44 41.18,-23 16.21,-5.57 34.63,-8.29 55.41,-8.29 26.84,0 49.22,3.71 67.4,11.26 18.06,7.42 34.39,20.28 48.85,38.34l35.25 0 0 62.33 -74.33 0z"/>
  <path class="fil9" d="M3775.48 9185.46c270.53,0 492.98,118.07 666.95,354.19 87.57,139.18 131.35,284.61 131.35,436.29l0 60.99c0,253.33 -110.24,466.78 -330.73,640.36 -143.87,100.08 -299.46,150.12 -466.79,150.12l-459.74 0c-243.95,0 -450.37,-97.73 -619.25,-293.21 -118.85,-148.55 -178.27,-316.66 -178.27,-504.31l0 -46.91c0,-243.95 97.73,-450.36 293.6,-619.25 148.55,-118.85 317.05,-178.27 504.7,-178.27l458.18 0zm-918.71 822.15c0,144.26 68.8,273.66 206.41,387.82 84.44,53.56 140.74,80.14 168.89,80.14 17.2,7.82 46.91,13.29 89.14,16.42 42.22,3.13 98.51,4.69 168.89,4.69 112.59,0 173.57,-14.86 182.96,-44.96 3.13,-4.69 6.25,-14.07 9.38,-28.15 0,-33.23 -28.93,-81.32 -86.79,-144.26 -6.26,-19.16 -9.38,-32.45 -9.38,-40.27 4.69,-34.79 28.93,-52 72.71,-52l250.99 0c37.53,0 89.92,17.98 157.16,53.95 9.38,3.13 17.2,4.69 23.45,4.69 6.26,0 11.73,0 16.42,0 64.12,0 105.55,-71.93 124.32,-215.8l0 -28.15c0,-143.87 -69.59,-272.88 -208.76,-387.04 -82.88,-65.68 -210.32,-98.51 -382.34,-98.51l-107.9 0c-203.29,0 -323.7,14.08 -361.23,42.22 -117.28,48.87 -207.2,134.09 -269.75,256.46 -29.71,65.68 -44.56,130.18 -44.56,192.73zm1827.26 -716.59c0,-31.28 8.99,-56.69 26.98,-76.24 17.98,-19.55 44.18,-29.32 78.58,-29.32l1358.13 0c204.85,0 346.37,98.52 424.57,295.55 14.07,46.91 21.11,95.39 21.11,145.43l0 16.42c0,198.59 -97.73,337.77 -293.21,417.52 -21.89,7.82 -61.37,14.47 -118.45,19.94 -57.08,5.47 -133.31,8.21 -228.7,8.21 -64.12,9.38 -96.17,29.71 -96.17,60.98l0 4.69c0,40.66 45.35,93.04 136.04,157.16l506.66 424.56c12.51,14.08 18.77,31.28 18.77,51.61 0,26.59 -28.93,39.88 -86.79,39.88l-288.52 0c-70.37,0 -144.65,-36.75 -222.83,-110.24 -444.11,-367.49 -671.64,-557.48 -682.58,-569.99 -45.35,-40.66 -68.02,-98.51 -68.02,-173.58l0 -98.51c0,-81.32 35.96,-121.97 107.9,-121.97l663.82 0c146.99,0 229.88,-13.29 248.64,-39.88 26.59,-18.77 39.88,-45.35 39.88,-79.75 0,-50.04 -28.93,-84.44 -86.79,-103.21 -18.76,-9.38 -79.75,-14.08 -182.96,-14.08l-734.19 0c-111.02,0 -173.57,21.11 -187.65,63.33 -12.51,26.59 -18.76,53.17 -18.76,79.75 -1.57,267.41 -2.35,489.46 -2.35,666.17 0,176.71 0,311.97 0,405.79 0,25.02 -9.38,47.3 -28.15,66.85 -18.76,19.55 -44.57,29.32 -77.41,29.32l-121.97 0c-31.27,0 -56.68,-8.99 -76.23,-26.98 -19.55,-17.98 -29.32,-44.18 -29.32,-78.58l0 -1430.84z"/>
  <path class="fil14" d="M7287.7 9291.02c0,-31.28 8.99,-56.69 26.98,-76.24 17.98,-19.55 44.18,-29.32 78.58,-29.32l1358.13 0c204.85,0 346.37,98.52 424.57,295.55 14.07,46.91 21.11,95.39 21.11,145.43l0 16.42c0,78.19 -18.77,157.16 -56.3,236.91 -9.38,23.45 -14.07,47.69 -14.07,72.71 0,25.02 17.98,85.22 53.95,180.61 10.95,45.35 16.42,92.26 16.42,140.74l0 30.49c0,217.36 -102.43,377.65 -307.28,480.86 -70.37,28.15 -143.09,42.22 -218.15,42.22l-1278.38 0c-31.27,0 -56.68,-8.99 -76.23,-26.98 -19.55,-17.98 -29.32,-44.18 -29.32,-78.58l0 -1430.84zm330.74 1036.38c0,37.53 4.3,67.24 12.9,89.53 8.6,21.89 21.5,38.71 39.1,50.44 17.2,11.72 38.7,19.54 64.5,23.45 25.81,3.91 57.08,5.86 93.05,5.86l645.05 0c164.98,0 259.19,-14.86 282.65,-44.96 66.07,-43.78 98.91,-98.12 98.91,-162.63 0,-78.58 -49.26,-140.74 -148.17,-186.48 -25.02,-12.51 -102.43,-18.76 -232.61,-18.76l-592.28 0c-72.32,0 -108.29,-40.66 -108.29,-121.97l0 -86.79c0,-81.32 35.96,-121.97 107.9,-121.97l663.82 0c146.99,0 229.88,-13.29 248.64,-39.88 26.59,-18.77 39.88,-45.35 39.88,-79.75 0,-50.04 -28.93,-84.44 -86.79,-103.21 -19.15,-9.38 -80.14,-14.08 -183.35,-14.08l-735.75 0c-111.42,0 -173.97,21.11 -188.05,63.33 -12.51,25.42 -18.76,54.34 -18.76,87.18l0 232.61c0,55.12 0,117.67 0,188.04 0,70.76 -0.79,150.51 -2.35,240.04zm2413.67 500.02c-31.28,0 -56.69,-8.99 -76.24,-26.98 -19.55,-17.98 -29.32,-44.18 -29.32,-78.58l0 -433.94c0,-123.54 -14.07,-200.95 -42.22,-232.22 -26.58,-40.66 -186.86,-222.05 -480.85,-544.19 -4.69,-7.82 -59.42,-70.37 -164.2,-187.65 -34.4,-34.4 -51.61,-64.9 -51.61,-91.48 0,-26.59 24.24,-42.22 72.71,-46.91l250.99 0c75.06,0 141.52,40.66 199.38,121.97 98.51,107.9 172.79,190 222.83,246.29 50.04,56.3 78.19,86.79 84.44,91.48 28.15,18.76 53.17,28.15 75.06,28.15 48.48,0 111.03,-50.04 187.66,-150.12 132.92,-151.69 229.09,-254.89 288.51,-309.62 34.4,-18.77 70.37,-28.15 107.9,-28.15l243.94 0c50.04,0 75.07,17.2 75.07,51.61l0 2.35c0,26.59 -37.54,78.19 -112.6,154.81 -175.14,195.47 -309.62,345.98 -403.45,451.54 -93.82,105.56 -148.55,168.5 -164.19,188.83 -37.53,32.84 -56.3,115.72 -56.3,248.64l0 438.64c0,29.71 -8.6,54.73 -25.8,75.06 -17.2,20.33 -43.01,30.49 -77.41,30.49l-124.32 0zm1079 -1536.4c0,-31.28 8.99,-56.69 26.98,-76.24 17.98,-19.55 44.18,-29.32 78.58,-29.32l1698.25 0c31.27,0 56.68,8.99 76.23,26.98 19.55,17.98 29.32,44.18 29.32,78.58l0 119.63c0,29.71 -8.99,54.73 -26.98,75.06 -17.98,20.33 -44.18,30.49 -78.58,30.49l-473.82 0c-111.03,0 -173.58,21.11 -187.66,63.33 -7.82,12.51 -13.29,31.28 -16.42,56.3 -3.13,25.02 -4.69,55.51 -4.69,91.48l0 994.55c0,29.71 -8.99,54.73 -26.98,75.06 -17.98,20.33 -44.18,30.49 -78.58,30.49l-121.97 0c-31.28,0 -56.69,-8.6 -76.24,-25.8 -19.55,-17.2 -29.32,-43.79 -29.32,-79.75l0 -994.55c0,-111.03 -20.33,-173.58 -60.98,-187.66 -25.02,-15.64 -74.28,-23.45 -147.78,-23.45l-473.82 0c-29.71,0 -54.73,-8.99 -75.06,-26.98 -20.33,-17.98 -30.49,-44.18 -30.49,-78.58l0 -119.63zm2021.95 0c0,-31.28 8.99,-56.69 26.98,-76.24 17.98,-19.55 44.18,-29.32 78.58,-29.32l1698.25 0c31.27,0 56.68,8.99 76.23,26.98 19.55,17.98 29.32,44.18 29.32,78.58l0 119.63c0,29.71 -8.99,54.73 -26.98,75.06 -17.98,20.33 -44.18,30.49 -78.58,30.49l-1698.25 0c-29.71,0 -54.73,-8.99 -75.06,-26.98 -20.33,-17.98 -30.49,-44.18 -30.49,-78.58l0 -119.63zm0 565.3c0,-31.27 8.99,-56.29 26.98,-75.06 17.98,-18.76 44.18,-28.15 78.58,-28.15l1698.25 0c29.71,0 54.73,8.6 75.06,25.8 20.33,17.2 30.49,43.01 30.49,77.41l0 121.97c0,29.71 -8.99,54.73 -26.98,75.06 -17.98,20.33 -44.18,30.5 -78.58,30.5l-1698.25 0c-31.27,0 -56.68,-8.99 -76.23,-26.98 -19.55,-17.98 -29.32,-44.18 -29.32,-78.58l0 -121.97zm0 745.13c0,-30.88 8.99,-56.29 26.98,-75.84 17.98,-19.16 44.18,-28.93 78.58,-28.93l1698.25 0c29.71,0 54.73,8.99 75.06,26.98 20.33,17.59 30.49,43.79 30.49,77.8l0 121.19c0,29.32 -8.99,54.34 -26.98,74.67 -17.98,19.94 -44.18,30.1 -78.58,30.1l-1698.25 0c-31.27,0 -56.68,-8.99 -76.23,-26.98 -19.55,-17.59 -29.32,-43.78 -29.32,-77.8l0 -121.19z"/>
 </g>
</svg>
